<?xml version="1.0" encoding="UTF-8"?>
<svg width="64px" height="64px" viewBox="0 0 64 64" version="1.1" xmlns="http://www.w3.org/2000/svg" xmlns:xlink="http://www.w3.org/1999/xlink">
    <!-- Generator: Sketch 55.2 (78181) - https://sketchapp.com -->
    <title>user_avatar</title>
    <desc>Created with Sketch.</desc>
    <g id="user_avatar" stroke="none" stroke-width="1" fill="none" fill-rule="evenodd">
        <rect id="background" fill="#1ABC9C" x="0" y="0" width="64" height="64"></rect>
        <path d="M14.039402,50.7994444 C14.6571769,41.418069 22.462297,34 32,34 C41.537703,34 49.3428232,41.418069 49.960598,50.7994444 C54.9143232,46.0654138 58,39.393056 58,32 C58,17.6405965 46.3594034,6 32,6 C17.6405965,6 6,17.6405965 6,32 C6,39.393056 9.08567682,46.0654138 14.039402,50.7994444 Z M32,58 C37.885035,58 43.4636088,56.0406142 47.9923062,52.501577 C47.9974316,52.3347526 48,52.1675484 48,52 C48,43.163444 40.836556,36 32,36 C23.163444,36 16,43.163444 16,52 C16,52.1675484 16.0025684,52.3347526 16.0076938,52.501577 C20.5363912,56.0406142 26.114965,58 32,58 Z M32,60 C16.536027,60 4,47.463973 4,32 C4,16.536027 16.536027,4 32,4 C47.463973,4 60,16.536027 60,32 C60,47.463973 47.463973,60 32,60 Z M32,28 C36.418278,28 40,24.418278 40,20 C40,15.581722 36.418278,12 32,12 C27.581722,12 24,15.581722 24,20 C24,24.418278 27.581722,28 32,28 Z M32,30 C26.4771526,30 22,25.5228474 22,20 C22,14.4771525 26.4771526,10 32,10 C37.5228474,10 42,14.4771525 42,20 C42,25.5228474 37.5228474,30 32,30 Z" id="shape" fill="#FFFFFF" fill-rule="nonzero"></path>
    </g>
</svg>